HIERARCHY
ROOT hip
{
  OFFSET 0 0 0
  CHANNELS 6 Xposition Yposition Zposition Zrotation Yrotation Xrotation
  JOINT abdomen
  {
    OFFSET 0 20.6881 -0.73152
    CHANNELS 3 Zrotation Xrotation Yrotation
    JOINT chest
    {
      OFFSET 0 11.7043 -0.48768
      CHANNELS 3 Zrotation Xrotation Yrotation
      JOINT neck
      {
        OFFSET 0 22.1894 -2.19456
        CHANNELS 3 Zrotation Xrotation Yrotation
        JOINT head
        {
          OFFSET -0.24384 7.07133 1.2192
          CHANNELS 3 Zrotation Xrotation Yrotation
          JOINT leftEye
          {
            OFFSET 4.14528 8.04674 8.04672
            CHANNELS 3 Zrotation Xrotation Yrotation
            End Site
            {
              OFFSET 1 0 0
            }
          }
          JOINT rightEye
          {
            OFFSET -3.6576 8.04674 8.04672
            CHANNELS 3 Zrotation Xrotation Yrotation
            End Site
            {
              OFFSET 1 0 0
            }
          }
        }
      }
      JOINT rCollar
      {
        OFFSET -2.68224 19.2634 -4.8768
        CHANNELS 3 Zrotation Xrotation Yrotation
        JOINT rShldr
        {
          OFFSET -8.77824 -1.95073 1.46304
          CHANNELS 3 Zrotation Xrotation Yrotation
          JOINT rForeArm
          {
            OFFSET -28.1742 -1.7115 0.48768
            CHANNELS 3 Zrotation Xrotation Yrotation
            JOINT rHand
            {
              OFFSET -22.5879 0.773209 7.07136
              CHANNELS 3 Zrotation Xrotation Yrotation
              JOINT rThumb1
              {
                OFFSET -1.2192 -0.487915 3.41376
                CHANNELS 3 Zrotation Xrotation Yrotation
                JOINT rThumb2
                {
                  OFFSET -3.37035 -0.52449 3.41376
                  CHANNELS 3 Zrotation Xrotation Yrotation
                  End Site
                  {
                    OFFSET -1.78271 -1.18214 1.43049
                  }
                }
              }
              JOINT rIndex1
              {
                OFFSET -7.75947 0.938293 5.60832
                CHANNELS 3 Zrotation Xrotation Yrotation
                JOINT rIndex2
                {
                  OFFSET -2.54057 -0.884171 1.56538
                  CHANNELS 3 Zrotation Xrotation Yrotation
                  End Site
                  {
                    OFFSET -1.62519 -0.234802 1.16502
                  }
                }
              }
              JOINT rMid1
              {
                OFFSET -8.24714 1.18213 3.41376
                CHANNELS 3 Zrotation Xrotation Yrotation
                JOINT rMid2
                {
                  OFFSET -3.10165 -0.590103 1.0647
                  CHANNELS 3 Zrotation Xrotation Yrotation
                  End Site
                  {
                    OFFSET -2.48547 -0.328903 0.83742
                  }
                }
              }
              JOINT rRing1
              {
                OFFSET -8.82822 0.546677 1.51678
                CHANNELS 3 Zrotation Xrotation Yrotation
                JOINT rRing2
                {
                  OFFSET -2.60934 -0.819778 -0.0198488
                  CHANNELS 3 Zrotation Xrotation Yrotation
                  End Site
                  {
                    OFFSET -2.33842 -0.294052 0.168128
                  }
                }
              }
              JOINT rPinky1
              {
                OFFSET -8.27202 -0.0477905 -0.4584
                CHANNELS 3 Zrotation Xrotation Yrotation
                JOINT rPinky2
                {
                  OFFSET -1.82734 -0.647385 -0.700984
                  CHANNELS 3 Zrotation Xrotation Yrotation
                  End Site
                  {
                    OFFSET -1.69225 -0.51767 -0.607171
                  }
                }
              }
            }
          }
        }
      }
      JOINT lCollar
      {
        OFFSET 2.68224 19.2634 -4.8768
        CHANNELS 3 Zrotation Xrotation Yrotation
        JOINT lShldr
        {
          OFFSET 8.77824 -1.95073 1.46304
          CHANNELS 3 Zrotation Xrotation Yrotation
          JOINT lForeArm
          {
            OFFSET 28.1742 -1.7115 0.48768
            CHANNELS 3 Zrotation Xrotation Yrotation
            JOINT lHand
            {
              OFFSET 22.5879 0.773209 7.07136
              CHANNELS 3 Zrotation Xrotation Yrotation
              JOINT lThumb1
              {
                OFFSET 1.2192 -0.487915 3.41376
                CHANNELS 3 Zrotation Xrotation Yrotation
                JOINT lThumb2
                {
                  OFFSET 3.37035 -0.52449 3.41376
                  CHANNELS 3 Zrotation Xrotation Yrotation
                  End Site
                  {
                    OFFSET 1.78271 -1.18214 1.43049
                  }
                }
              }
              JOINT lIndex1
              {
                OFFSET 7.75947 0.938293 5.60832
                CHANNELS 3 Zrotation Xrotation Yrotation
                JOINT lIndex2
                {
                  OFFSET 2.54057 -0.884171 1.56538
                  CHANNELS 3 Zrotation Xrotation Yrotation
                  End Site
                  {
                    OFFSET 1.62519 -0.234802 1.16502
                  }
                }
              }
              JOINT lMid1
              {
                OFFSET 8.24714 1.18213 3.41376
                CHANNELS 3 Zrotation Xrotation Yrotation
                JOINT lMid2
                {
                  OFFSET 3.10165 -0.590103 1.0647
                  CHANNELS 3 Zrotation Xrotation Yrotation
                  End Site
                  {
                    OFFSET 2.48547 -0.328903 0.83742
                  }
                }
              }
              JOINT lRing1
              {
                OFFSET 8.82822 0.546677 1.51678
                CHANNELS 3 Zrotation Xrotation Yrotation
                JOINT lRing2
                {
                  OFFSET 2.60934 -0.819778 -0.0198488
                  CHANNELS 3 Zrotation Xrotation Yrotation
                  End Site
                  {
                    OFFSET 2.33842 -0.294052 0.168128
                  }
                }
              }
              JOINT lPinky1
              {
                OFFSET 8.27202 -0.0477905 -0.4584
                CHANNELS 3 Zrotation Xrotation Yrotation
                JOINT lPinky2
                {
                  OFFSET 1.82734 -0.647385 -0.700984
                  CHANNELS 3 Zrotation Xrotation Yrotation
                  End Site
                  {
                    OFFSET 1.69225 -0.51767 -0.607171
                  }
                }
              }
            }
          }
        }
      }
    }
  }
  JOINT rButtock
  {
    OFFSET -8.77824 4.35084 1.2192
    CHANNELS 3 Zrotation Xrotation Yrotation
    JOINT rThigh
    {
      OFFSET 0 -1.70687 -2.19456
      CHANNELS 3 Zrotation Xrotation Yrotation
      JOINT rShin
      {
        OFFSET 0 -36.8199 0.73152
        CHANNELS 3 Zrotation Xrotation Yrotation
        JOINT rFoot
        {
          OFFSET 0.73152 -45.1104 -5.12064
          CHANNELS 3 Zrotation Xrotation Yrotation
          End Site
          {
            OFFSET -1.1221 -3.69964 12.103
          }
        }
      }
    }
  }
  JOINT lButtock
  {
    OFFSET 8.77824 4.35084 1.2192
    CHANNELS 3 Zrotation Xrotation Yrotation
    JOINT lThigh
    {
      OFFSET 0 -1.70687 -2.19456
      CHANNELS 3 Zrotation Xrotation Yrotation
      JOINT lShin
      {
        OFFSET 0 -36.8199 0.73152
        CHANNELS 3 Zrotation Xrotation Yrotation
        JOINT lFoot
        {
          OFFSET -0.73152 -45.1104 -5.12064
          CHANNELS 3 Zrotation Xrotation Yrotation
          End Site
          {
            OFFSET 1.1221 -3.69964 12.103
          }
        }
      }
    }
  }
}
MOTION
Frames:	4
Frame Time:	0.00833333
-13.3255 84.367 36.8285 -134.366 -78.5172 144.53 4.47453 0.0352238 -4.83308 1.03731 -2.19587 -1.41044 -4.42637 -2.29527 1.5309 15.3831 -9.33156 5.5195 -0.0 0.0 0.0 -0.0 0.0 0.0 9.31528e-14 -2.1253e-13 2.70478e-13 78.7451 8.24256 -1.09103 -12.3335 -5.68521 22.2573 -0.475508 19.218 2.8081 -4.9111e-10 3.60386e-10 -3.1938e-09 -8.91851e-10 5.93604e-10 -5.50882e-09 -4.91109e-10 3.60389e-10 -3.1938e-09 7.73091 5.47488 0.417314 -4.91112e-10 3.60389e-10 -3.19381e-09 2.90554 0.965183 0.102902 -4.91107e-10 3.60389e-10 -3.1938e-09 10.2786 0.731801 0.0259123 -4.91114e-10 3.6039e-10 -3.1938e-09 2.22167 -0.733487 -0.20892 9.29592e-14 -2.12521e-13 2.70217e-13 -43.6506 1.82713 -55.2148 22.8598 -17.1069 -46.171 0.00458152 -1.88847 0.265496 2.63253e-10 3.17147e-11 -3.4158e-10 4.5745e-10 5.41497e-11 -5.96586e-10 2.63253e-10 3.17172e-11 -3.41565e-10 -7.73091 5.47488 -0.417314 2.63249e-10 3.17131e-11 -3.41571e-10 -2.90554 0.965183 -0.102902 2.63244e-10 3.17142e-11 -3.41574e-10 -10.2786 0.731801 -0.0259123 2.63255e-10 3.17129e-11 -3.41578e-10 -2.22167 -0.733487 0.20892 -2.03217e-16 0.0 -3.88251e-19 12.1972 -9.56212 5.58706 -0.0915469 18.4554 0.25192 -1.73218 -8.78829 -5.92039 2.03217e-16 0.0 3.88251e-19 18.1241 -37.0805 1.67857 0.0989313 23.9437 -0.188253 1.4642 -3.08157 8.89476
-14.1696 84.2983 36.925 -135.62 -78.2673 145.741 4.59912 -0.0191708 -4.7179 1.01404 -2.11371 -1.383 -4.30984 -2.29201 1.59919 15.0696 -9.35432 5.60236 -0.0 0.0 0.0 -0.0 0.0 0.0 8.58294e-14 -2.42104e-13 2.90717e-13 78.8483 8.44409 -0.989253 -12.4068 -5.73799 22.4 -0.474464 19.198 2.80494 -9.91122e-10 -1.66831e-10 -2.88001e-09 -1.75153e-09 -3.25026e-10 -4.95912e-09 -9.91122e-10 -1.66828e-10 -2.88002e-09 7.73091 5.47488 0.417314 -9.91124e-10 -1.66826e-10 -2.88003e-09 2.90554 0.965183 0.102902 -9.91118e-10 -1.66827e-10 -2.88002e-09 10.2786 0.731801 0.0259123 -9.91127e-10 -1.66826e-10 -2.88002e-09 2.22167 -0.733487 -0.20892 8.56365e-14 -2.42098e-13 2.90428e-13 -43.17 3.03898 -54.0625 23.1708 -17.625 -47.0746 0.00052422 -0.5196 0.0729023 -2.20179e-10 -2.20924e-11 -2.8467e-10 -3.78787e-10 -3.80017e-11 -4.97181e-10 -2.20178e-10 -2.20912e-11 -2.8465e-10 -7.73091 5.47488 -0.417314 -2.20184e-10 -2.20939e-11 -2.84659e-10 -2.90554 0.965183 -0.102902 -2.20188e-10 -2.20939e-11 -2.84661e-10 -10.2786 0.731801 -0.0259123 -2.20178e-10 -2.20953e-11 -2.84663e-10 -2.22167 -0.733487 0.20892 -2.03217e-16 0.0 -3.88251e-19 11.9643 -9.12768 5.65945 -0.0960791 18.7078 0.249167 -1.72501 -8.95578 -5.82108 2.03217e-16 0.0 3.88251e-19 18.1014 -37.1217 1.3101 0.0888289 23.1059 -0.155552 1.43133 -2.85237 9.09902
-15.0196 84.2256 37.0241 -136.756 -78.033 146.824 4.71491 -0.0669998 -4.61412 0.993592 -2.03045 -1.35882 -4.19045 -2.28444 1.66402 14.766 -9.38085 5.67768 -0.0 0.0 0.0 -0.0 0.0 0.0 7.77127e-14 -2.18963e-13 2.76857e-13 78.949 8.63536 -0.892321 -12.4793 -5.79046 22.5415 -0.473561 19.1806 2.8022 -1.06935e-09 -1.5627e-10 -2.86327e-09 -1.88727e-09 -3.07789e-10 -4.92927e-09 -1.06935e-09 -1.56267e-10 -2.86327e-09 7.73091 5.47488 0.417314 -1.06935e-09 -1.56265e-10 -2.86328e-09 2.90554 0.965183 0.102902 -1.06934e-09 -1.56265e-10 -2.86328e-09 10.2786 0.731801 0.0259123 -1.06935e-09 -1.56265e-10 -2.86328e-09 2.22167 -0.733487 -0.20892 7.75432e-14 -2.1896e-13 2.76559e-13 -42.7841 4.31482 -52.903 23.454 -18.1105 -47.9257 0.000912077 0.862325 -0.121201 -2.41088e-10 -1.59314e-11 -8.90587e-11 -4.14825e-10 -2.59279e-11 -1.60016e-10 -2.41087e-10 -1.5931e-11 -8.90364e-11 -7.73091 5.47488 -0.417314 -2.41094e-10 -1.59328e-11 -8.9046e-11 -2.90554 0.965183 -0.102902 -2.41097e-10 -1.59335e-11 -8.90468e-11 -10.2786 0.731801 -0.0259123 -2.41089e-10 -1.5935e-11 -8.90492e-11 -2.22167 -0.733487 0.20892 -2.03217e-16 0.0 -3.88251e-19 11.7205 -8.73238 5.71117 -0.100898 19.0299 0.247502 -1.71256 -9.09001 -5.71465 2.03217e-16 0.0 3.88251e-19 18.0541 -37.1547 0.946944 0.0808304 22.3572 -0.12494 1.39346 -2.61787 9.28057
-15.8759 84.1495 37.1252 -137.784 -77.8163 147.791 4.8241 -0.107901 -4.52387 0.976205 -1.94553 -1.33853 -4.06704 -2.2715 1.72567 14.4717 -9.41365 5.7458 -0.0 0.0 0.0 -0.0 0.0 0.0 6.8301e-14 -7.80511e-14 2.00967e-13 79.0468 8.8166 -0.799246 -12.5511 -5.84274 22.6819 -0.472865 19.1672 2.80008 -3.64793e-10 9.24374e-10 -3.59192e-09 -6.82532e-10 1.56967e-09 -6.19959e-09 -3.64791e-10 9.24375e-10 -3.59193e-09 7.73091 5.47488 0.417314 -3.64795e-10 9.24376e-10 -3.59194e-09 2.90554 0.965183 0.102902 -3.64788e-10 9.24376e-10 -3.59193e-09 10.2786 0.731801 0.0259123 -3.64798e-10 9.24378e-10 -3.59193e-09 2.22167 -0.733487 -0.20892 6.82034e-14 -7.80489e-14 2.0069e-13 -42.4954 5.66081 -51.7332 23.7184 -18.5794 -48.7316 0.00625986 2.25277 -0.316681 6.85764e-10 1.4761e-10 4.2743e-10 1.18899e-09 2.60159e-10 7.26471e-10 6.85765e-10 1.4761e-10 4.27451e-10 -7.73091 5.47488 -0.417314 6.8576e-10 1.47608e-10 4.2744e-10 -2.90554 0.965183 -0.102902 6.85755e-10 1.47607e-10 4.27441e-10 -10.2786 0.731801 -0.0259123 6.85763e-10 1.47606e-10 4.27438e-10 -2.22167 -0.733487 0.20892 -2.03217e-16 0.0 -3.88251e-19 11.468 -8.3743 5.74177 -0.106064 19.4215 0.24691 -1.69584 -9.19792 -5.60187 2.03217e-16 0.0 3.88251e-19 17.9832 -37.1821 0.582065 0.0748215 21.7005 -0.0962927 1.35086 -2.37719 9.44415
